<?xml version="1.0" encoding="UTF-8"?>
<svg width="28px" height="28px" viewBox="0 0 28 28" version="1.1" xmlns="http://www.w3.org/2000/svg" xmlns:xlink="http://www.w3.org/1999/xlink">
    <g id="Website" stroke="none" stroke-width="1" fill="none" fill-rule="evenodd">
        <g id="LP-DESKTOP-v1" transform="translate(-584.000000, -1835.000000)">
            <g id="quote-1" transform="translate(390.000000, 1736.000000)">
                <g id="avatar" transform="translate(142.000000, 51.000000)">
                    <g id="quotation-mark" transform="translate(52.000000, 48.000000)">
                        <circle id="Oval" fill="currentColor" cx="14" cy="14" r="14"></circle>
                        <path d="M10.5,14 L9,14 L9,10 L13,10 L13,13.0135135 C13,16.3288454 11.66668,18.1036024 9,18.3378378 L9,16.8378378 C10,16.5495481 10.5,15.7432499 10.5,14.4189189 L10.5,14 Z M16.5,14 L15,14 L15,10 L19,10 L19,13.0135135 C19,16.3288454 17.66668,18.1036024 15,18.3378378 L15,16.8378378 C16,16.5495481 16.5,15.7432499 16.5,14.4189189 L16.5,14 Z" id="„" fill="#FFFFFF"></path>
                    </g>
                </g>
            </g>
        </g>
    </g>
</svg>
