<svg width="36" height="36" viewBox="0 0 36 36" xmlns="http://www.w3.org/2000/svg"><g fill="none" fill-rule="evenodd"><circle fill="currentColor" cx="18" cy="18" r="18"/><path d="M10.998 23.256l.14-1.512c2.45-.55 3.675-1.558 3.675-3.023 0-.422-.387-.88-1.16-1.371-.786-.493-1.178-1.102-1.178-1.829 0-.644.205-1.16.615-1.546.41-.387.95-.58 1.617-.58.809 0 1.477.266 2.004.8.527.533.791 1.25.791 2.153 0 1.757-.557 3.243-1.67 4.456-1.113 1.213-2.725 2.03-4.834 2.452zm7.154 0l.141-1.512c2.45-.55 3.674-1.558 3.674-3.023 0-.422-.387-.88-1.16-1.371-.786-.493-1.178-1.102-1.178-1.829 0-.644.205-1.16.615-1.546.41-.387.95-.58 1.617-.58.809 0 1.48.272 2.013.817.533.545.8 1.257.8 2.136 0 1.77-.566 3.257-1.696 4.465-1.131 1.207-2.74 2.021-4.826 2.443z" fill="#FFF"/></g></svg>