<?xml version="1.0" encoding="UTF-8"?>
<svg viewBox="0 0 20 20" version="1.1" xmlns="http://www.w3.org/2000/svg" xmlns:xlink="http://www.w3.org/1999/xlink">
    <g id="Website" stroke="none" stroke-width="1" fill="none" fill-rule="evenodd">
        <g id="LP-DESKTOP-v1" transform="translate(-972.000000, -2305.000000)" fill="currentColor">
            <g id="footer" transform="translate(0.000000, 2254.000000)">
                <g id="social" transform="translate(876.000000, 51.000000)">
                    <g id="logo-dribbble" transform="translate(96.000000, 0.000000)">
                        <path d="M10,20 C4.5,20 0,15.5 0,10 C0,4.5 4.5,0 10,0 C15.5,0 20,4.5 20,10 C20,15.5 15.5,20 10,20 Z M18.4166667,11.3333333 C18.0833333,11.25 15.75,10.5 13.0833333,11 C14.1666667,14.0833333 14.6666667,16.5833333 14.75,17.0833333 C16.6666667,15.8333333 18.0833333,13.75 18.4166667,11.3333333 Z M13.3333333,17.9166667 C13.1666667,17.1666667 12.75,14.5833333 11.5,11.4166667 C11.5,11.4166667 11.5,11.4166667 11.4166667,11.4166667 C6.58333333,13.0833333 4.83333333,16.4166667 4.75,16.75 C6.16666667,17.9166667 8,18.5833333 10,18.5833333 C11.1666667,18.5833333 12.3333333,18.3333333 13.3333333,17.9166667 Z M3.66666667,15.75 C3.83333333,15.4166667 6.16666667,11.5 10.5833333,10.0833333 C10.6666667,10.0833333 10.8333333,10 10.9166667,10 C10.6666667,9.5 10.5,9 10.25,8.58333333 C6,9.83333333 1.83333333,9.83333333 1.5,9.83333333 C1.5,9.91666667 1.5,10 1.5,10.0833333 C1.5,12.1666667 2.25,14.25 3.66666667,15.75 Z M1.66666667,8.25 C2.08333333,8.25 5.58333333,8.25 9.58333333,7.25 C8.16666667,4.75 6.66666667,2.58333333 6.41666667,2.33333333 C4,3.41666667 2.16666667,5.58333333 1.66666667,8.25 Z M8,1.75 C8.25,2.08333333 9.75,4.16666667 11.1666667,6.75 C14.1666667,5.58333333 15.5,3.91666667 15.6666667,3.66666667 C14.1666667,2.25 12.1666667,1.5 10,1.5 C9.33333333,1.5 8.66666667,1.58333333 8,1.75 Z M16.5833333,4.58333333 C16.4166667,4.83333333 15,6.66666667 11.8333333,7.91666667 C12,8.33333333 12.25,8.75 12.4166667,9.16666667 C12.5,9.33333333 12.5,9.5 12.5833333,9.58333333 C15.4166667,9.25 18.25,9.83333333 18.5,9.83333333 C18.5,7.91666667 17.8333333,6.08333333 16.5833333,4.58333333 Z" id="Shape"></path>
                    </g>
                </g>
            </g>
        </g>
    </g>
</svg>
