<?xml version="1.0" encoding="UTF-8"?>
<svg viewBox="0 0 20 17" version="1.1" xmlns="http://www.w3.org/2000/svg" xmlns:xlink="http://www.w3.org/1999/xlink">
    <g id="Website" stroke="none" stroke-width="1" fill="none" fill-rule="evenodd">
        <g id="LP-DESKTOP-v1" transform="translate(-920.000000, -2307.000000)" fill="currentColor" fill-rule="nonzero">
            <g id="footer" transform="translate(0.000000, 2254.000000)">
                <g id="social" transform="translate(876.000000, 51.000000)">
                    <g id="logo-twitter" transform="translate(44.000000, 2.000000)">
                        <path d="M20,1.91666667 C19.25,2.25 18.5,2.5 17.6666667,2.58333333 C18.5,2.08333333 19.1666667,1.25 19.5,0.333333333 C18.6666667,0.833333333 17.8333333,1.16666667 16.9166667,1.33333333 C16.1666667,0.5 15.0833333,0 13.9166667,0 C11.6666667,0 9.83333333,1.83333333 9.83333333,4.08333333 C9.83333333,4.41666667 9.83333333,4.75 9.91666667,5 C6.41666667,4.83333333 3.41666667,3.16666667 1.41666667,0.666666667 C1,1.33333333 0.833333333,2 0.833333333,2.75 C0.833333333,4.16666667 1.58333333,5.41666667 2.66666667,6.16666667 C2,6.16666667 1.33333333,6 0.833333333,5.66666667 C0.833333333,5.66666667 0.833333333,5.66666667 0.833333333,5.75 C0.833333333,7.75 2.25,9.41666667 4.08333333,9.75 C3.75,9.83333333 3.41666667,9.91666667 3,9.91666667 C2.75,9.91666667 2.5,9.91666667 2.25,9.83333333 C2.75,11.5 4.25,12.6666667 6.08333333,12.6666667 C4.66666667,13.75 2.91666667,14.4166667 1,14.4166667 C0.666666667,14.4166667 0.333333333,14.4166667 0,14.3333333 C1.83333333,15.5 4,16.1666667 6.25,16.1666667 C13.8333333,16.1666667 17.9166667,9.91666667 17.9166667,4.5 C17.9166667,4.33333333 17.9166667,4.16666667 17.9166667,4 C18.75,3.41666667 19.4166667,2.66666667 20,1.91666667 Z" id="Shape"></path>
                    </g>
                </g>
            </g>
        </g>
    </g>
</svg>
