<?xml version="1.0" encoding="UTF-8"?>
<svg viewBox="0 0 20 13" version="1.1" xmlns="http://www.w3.org/2000/svg" xmlns:xlink="http://www.w3.org/1999/xlink">
    <g id="Website" stroke="none" stroke-width="1" fill="none" fill-rule="evenodd">
        <g id="LP-DESKTOP-v1" transform="translate(-1024.000000, -2309.000000)" fill="currentColor" fill-rule="nonzero">
            <g id="footer" transform="translate(0.000000, 2254.000000)">
                <g id="social" transform="translate(876.000000, 51.000000)">
                    <g id="logo-behance" transform="translate(148.000000, 4.000000)">
                        <path d="M8.07155,5.99628333 C8.07155,5.99628333 9.96415,5.85568333 9.96415,3.63619167 C9.96415,1.41665833 8.41565833,0.333516667 6.45423333,0.333516667 L2.843875,0.333516667 L2.73780833,0.333516667 L0,0.333516667 L0,12.7371083 L2.73780833,12.7371083 L2.843875,12.7371083 L6.454225,12.7371083 C6.454225,12.7371083 10.3942917,12.8613 10.3942917,9.0761 C10.3942917,9.0761 10.566325,5.99628333 8.07155,5.99628333 Z M2.843875,2.537975 L5.98965833,2.537975 L6.45423333,2.537975 C6.45423333,2.537975 7.33169167,2.537975 7.33169167,3.8284 C7.33169167,5.118825 6.81551667,5.30593333 6.23055,5.30593333 L2.843875,5.30593333 L2.843875,2.537975 Z M6.287825,10.53265 L2.843875,10.53265 L2.843875,7.21788509 L6.454225,7.21788509 C6.454225,7.21788509 7.76183333,7.20071667 7.76183333,8.92120833 C7.76183333,10.3557583 6.8054,10.5182583 6.287825,10.53265 Z" id="Shape"></path>
                        <path d="M15.649225,3.48925 C10.8794616,3.48925 10.8837083,8.25479167 10.8837083,8.25479167 C10.8837083,8.25479167 10.556375,12.9963 15.6493583,12.9963 C15.6493583,12.9963 19.8936,13.2387167 19.8936,9.6979 L17.7108083,9.6979 C17.7108083,9.6979 17.783525,11.0316167 15.7220833,11.0316167 C15.7220833,11.0316167 13.5392583,11.1776083 13.5392583,8.87340833 L19.966325,8.87340833 C19.966325,8.8734 20.6694833,3.48925 15.649225,3.48925 Z M17.5894076,7.21788333 L13.51495,7.21788333 C13.51495,7.21788333 13.78175,5.305925 15.6977417,5.305925 C17.6137667,5.305925 17.5894076,7.21788333 17.5894076,7.21788333 Z" id="Shape"></path>
                        <rect id="Rectangle-path" x="13.3333333" y="0.833333333" width="5" height="1.66666667"></rect>
                    </g>
                </g>
            </g>
        </g>
    </g>
</svg>
